<?xml version="1.0" encoding="UTF-8" standalone="no"?> <!-- Created with Vectornator for iOS (http://vectornator.io/) --><!DOCTYPE svg PUBLIC "-//W3C//DTD SVG 1.1//EN" "http://www.w3.org/Graphics/SVG/1.1/DTD/svg11.dtd">
<svg style="fill-rule:evenodd;clip-rule:evenodd;stroke-linecap:round;stroke-linejoin:round;" xmlns:vectornator="http://vectornator.io" xmlns:xlink="http://www.w3.org/1999/xlink" xmlns="http://www.w3.org/2000/svg" xml:space="preserve" version="1.1" viewBox="0 0 512 115">
<metadata>
<vectornator:setting key="DynamicGuides" value="1"/>
<vectornator:setting key="CMYKEnabledKey" value="0"/>
<vectornator:setting key="Units" value="Points"/>
<vectornator:setting key="GridSpacing" value="36"/>
<vectornator:setting key="SnapToGuides" value="1"/>
<vectornator:setting key="RulersVisible" value="1"/>
</metadata>
<defs/>
<g id="g10" vectornator:layerName="g10">
<g opacity="1">
<path d="M456.056+16.7669C448.828+16.7669+442.139+18.5827+436.01+22.2092C429.875+25.8304+425.025+30.9383+421.399+37.5116C417.775+44.0745+415.98+51.0271+415.98+58.3456C415.98+65.6091+417.783+72.563+421.458+79.1923C425.092+85.8111+429.999+90.9778+436.144+94.6817C442.311+98.3692+448.9+100.21+455.968+100.21C463.095+100.21+469.827+98.3759+476.214+94.7212C482.592+91.0659+487.503+86.0914+490.901+79.8469C494.367+73.6048+496.081+66.5485+496.081+58.7274C496.081+46.7891+492.208+36.8189+484.525+28.7865C476.817+20.7791+467.33+16.7669+456.056+16.7669ZM508.066+6.61293L508.066+109.804L495.235+109.804L495.235+92.0694C489.787+98.8187+483.682+103.919+476.884+107.325C470.117+110.751+462.69+112.439+454.626+112.439C440.324+112.439+428.095+107.159+417.967+96.5662C407.848+85.9703+402.774+73.0877+402.774+57.9166C402.774+43.0668+407.864+30.3479+418.108+19.7963C428.334+9.24359+440.637+3.96654+454.998+3.96654C463.297+3.96654+470.815+5.75879+477.54+9.35905C484.265+12.9619+490.184+18.3741+495.235+25.593L495.235+6.61293L508.066+6.61293" fill-rule="evenodd" fill="#5a2a94" opacity="1"/>
<path stroke="#5a2a94" stroke-width="1.89251" d="M456.056+16.7669C448.828+16.7669+442.139+18.5827+436.01+22.2092C429.875+25.8304+425.025+30.9383+421.399+37.5116C417.775+44.0745+415.98+51.0271+415.98+58.3456C415.98+65.6091+417.783+72.563+421.458+79.1923C425.092+85.8111+429.999+90.9778+436.144+94.6817C442.311+98.3692+448.9+100.21+455.968+100.21C463.095+100.21+469.827+98.3759+476.214+94.7212C482.592+91.0659+487.503+86.0914+490.901+79.8469C494.367+73.6048+496.081+66.5485+496.081+58.7274C496.081+46.7891+492.208+36.8189+484.525+28.7865C476.817+20.7791+467.33+16.7669+456.056+16.7669ZM508.066+6.61293L508.066+109.804L495.235+109.804L495.235+92.0694C489.787+98.8187+483.682+103.919+476.884+107.325C470.117+110.751+462.69+112.439+454.626+112.439C440.324+112.439+428.095+107.159+417.967+96.5662C407.848+85.9703+402.774+73.0877+402.774+57.9166C402.774+43.0668+407.864+30.3479+418.108+19.7963C428.334+9.24359+440.637+3.96654+454.998+3.96654C463.297+3.96654+470.815+5.75879+477.54+9.35905C484.265+12.9619+490.184+18.3741+495.235+25.593L495.235+6.61293L508.066+6.61293Z" fill="none" stroke-linecap="butt" opacity="1" stroke-linejoin="miter"/>
<path d="M178.37+113.463C142.359+113.463+124.465+87.4178+110.622+63.174L110.622+63.174C95.2699+35.3271+82.1507+15.4351+56.2809+15.4351C33.6317+15.4351+15.1975+34.5398+15.1975+58.0005C15.1975+81.7601+32.8501+100.362+55.3722+100.362C67.5063+100.362+84.6413+92.2237+93.5557+74.3788L95.2344+71.0291L107.484+71.0291L107.484+109.878L95.3387+109.878L95.3387+93.2799C83.6484+106.459+67.958+112.496+55.3722+112.496C26.0326+112.496+3.0656+88.5566+3.0656+58.0005C3.0656+27.8405+26.9356+3.2987+56.2809+3.2987C90.268+3.2987+105.864+28.1384+121.356+57.5164C134.049+79.7074+148.939+101.32+178.37+101.32C193.761+101.32+207.82+93.7382+215.997+81.0394L226.21+87.6085C215.783+103.799+197.893+113.463+178.37+113.463" fill-rule="evenodd" fill="#6ac32f" opacity="1"/>
<path stroke="#6ac32f" stroke-width="1.89251" d="M178.37+113.463C142.359+113.463+124.465+87.4178+110.622+63.174L110.622+63.174C95.2699+35.3271+82.1507+15.4351+56.2809+15.4351C33.6317+15.4351+15.1975+34.5398+15.1975+58.0005C15.1975+81.7601+32.8501+100.362+55.3722+100.362C67.5063+100.362+84.6413+92.2237+93.5557+74.3788L95.2344+71.0291L107.484+71.0291L107.484+109.878L95.3387+109.878L95.3387+93.2799C83.6484+106.459+67.958+112.496+55.3722+112.496C26.0326+112.496+3.0656+88.5566+3.0656+58.0005C3.0656+27.8405+26.9356+3.2987+56.2809+3.2987C90.268+3.2987+105.864+28.1384+121.356+57.5164C134.049+79.7074+148.939+101.32+178.37+101.32C193.761+101.32+207.82+93.7382+215.997+81.0394L226.21+87.6085C215.783+103.799+197.893+113.463+178.37+113.463Z" fill="none" stroke-linecap="butt" opacity="1" stroke-linejoin="miter"/>
<path d="M320.496+45.3472C318.748+38.2686+316.242+32.6138+312.919+28.3628C309.605+24.1327+305.206+20.7056+299.752+18.1195C294.286+15.5401+288.539+14.2346+282.536+14.2346C272.613+14.2346+264.072+17.4951+256.932+24.0067C251.733+28.7511+247.784+35.8624+245.129+45.3472L320.496+45.3472ZM320.496+73.135L331.472+79.0124C327.88+86.2155+323.705+92.0386+318.997+96.4648C314.286+100.882+309.002+104.247+303.084+106.561C297.187+108.86+290.532+110.013+283.095+110.013C266.608+110.013+253.699+104.508+244.399+93.486C235.083+82.431+230.434+69.9703+230.434+56.0614C230.434+42.9684+234.374+31.2977+242.254+21.0559C252.241+8.04306+265.61+1.53662+282.335+1.53662C299.581+1.53662+313.362+8.21232+323.629+21.5466C330.966+30.9488+334.68+42.727+334.824+56.8132L243.824+56.8132C244.066+68.8105+247.82+78.6363+255.078+86.2954C262.34+93.9657+271.303+97.7784+281.969+97.7784C287.115+97.7784+292.128+96.8717+297.002+95.0415C301.85+93.219+306.004+90.8034+309.439+87.7725C312.844+84.7476+316.53+79.8715+320.496+73.135" fill-rule="evenodd" fill="#5a2a94" opacity="1"/>
<path stroke="#5a2a94" stroke-width="1.89251" d="M320.496+45.3472C318.748+38.2686+316.242+32.6138+312.919+28.3628C309.605+24.1327+305.206+20.7056+299.752+18.1195C294.286+15.5401+288.539+14.2346+282.536+14.2346C272.613+14.2346+264.072+17.4951+256.932+24.0067C251.733+28.7511+247.784+35.8624+245.129+45.3472L320.496+45.3472ZM320.496+73.135L331.472+79.0124C327.88+86.2155+323.705+92.0386+318.997+96.4648C314.286+100.882+309.002+104.247+303.084+106.561C297.187+108.86+290.532+110.013+283.095+110.013C266.608+110.013+253.699+104.508+244.399+93.486C235.083+82.431+230.434+69.9703+230.434+56.0614C230.434+42.9684+234.374+31.2977+242.254+21.0559C252.241+8.04306+265.61+1.53662+282.335+1.53662C299.581+1.53662+313.362+8.21232+323.629+21.5466C330.966+30.9488+334.68+42.727+334.824+56.8132L243.824+56.8132C244.066+68.8105+247.82+78.6363+255.078+86.2954C262.34+93.9657+271.303+97.7784+281.969+97.7784C287.115+97.7784+292.128+96.8717+297.002+95.0415C301.85+93.219+306.004+90.8034+309.439+87.7725C312.844+84.7476+316.53+79.8715+320.496+73.135Z" fill="none" stroke-linecap="butt" opacity="1" stroke-linejoin="miter"/>
<path d="M354.138+4.19615L367.428+4.19615L367.428+19.2703C371.382+13.3293+375.595+8.87885+379.983+5.94118C384.371+3.00744+388.949+1.53664+393.729+1.53664C397.326+1.53664+401.164+2.69911+405.247+5.03981L398.468+16.2355C395.748+15.0311+393.444+14.4301+391.573+14.4301C387.247+14.4301+383.078+16.2565+379.05+19.8764C375.028+23.5187+371.955+29.1604+369.828+36.8058C368.243+42.6877+367.428+54.5839+367.428+72.4593L367.428+107.357L354.138+107.357L354.138+4.19614" fill-rule="evenodd" fill="#5a2a94" opacity="1"/>
<path stroke="#5a2a94" stroke-width="1.89251" d="M354.138+4.19615L367.428+4.19615L367.428+19.2703C371.382+13.3293+375.595+8.87885+379.983+5.94118C384.371+3.00744+388.949+1.53664+393.729+1.53664C397.326+1.53664+401.164+2.69911+405.247+5.03981L398.468+16.2355C395.748+15.0311+393.444+14.4301+391.573+14.4301C387.247+14.4301+383.078+16.2565+379.05+19.8764C375.028+23.5187+371.955+29.1604+369.828+36.8058C368.243+42.6877+367.428+54.5839+367.428+72.4593L367.428+107.357L354.138+107.357L354.138+4.19615Z" fill="none" stroke-linecap="butt" opacity="1" stroke-linejoin="miter"/>
<path d="M132.719+58.6526C135.612+29.3008+158.218+14.421+178.37+14.421C193.021+14.421+206.72+21.4588+214.999+33.233L224.93+26.2621C214.377+11.2406+196.97+2.29368+178.37+2.29368C156.568+2.29368+132.637+15.0205+123.787+42.5197L132.719+58.6526" fill-rule="evenodd" fill="#5a2a94" opacity="1"/>
<path stroke="#5a2a94" stroke-width="1.89373" d="M132.719+58.6526C135.612+29.3008+158.218+14.421+178.37+14.421C193.021+14.421+206.72+21.4588+214.999+33.233L224.93+26.2621C214.377+11.2406+196.97+2.29368+178.37+2.29368C156.568+2.29368+132.637+15.0205+123.787+42.5197L132.719+58.6526Z" fill="none" stroke-linecap="butt" opacity="1" stroke-linejoin="miter"/>
<path d="M178.598+61.4106C176.627+61.4106+175+59.7889+175+57.7788C175+55.8016+176.627+54.1878+178.598+54.1878C180.597+54.1878+182.215+55.8016+182.215+57.7788C182.215+59.7889+180.597+61.4106+178.598+61.4106ZM184.605+60.1339C184.78+59.7115+184.906+59.2588+184.964+58.7694L186.995+58.5136L186.97+57.0952L184.944+56.8669C184.943+56.7463+184.916+56.6361+184.868+56.535C184.862+56.5114+184.862+56.4878+184.862+56.4799C184.845+56.3867+184.826+56.2765+184.814+56.1741C184.814+56.165+184.814+56.1571+184.801+56.1348C184.78+56.0299+184.721+55.9354+184.699+55.837C184.699+55.8226+184.699+55.8226+184.699+55.8173C184.667+55.7189+184.605+55.6113+184.586+55.505L184.586+55.505L186.183+54.2822L185.492+53.0424L183.599+53.8676C183.311+53.4936+182.975+53.1748+182.601+52.8823C182.601+52.8823+182.601+52.8823+182.599+52.8823L183.398+50.9877L182.196+50.2844L180.956+51.9179C180.516+51.7617+180.068+51.6266+179.623+51.561L179.623+51.561L179.343+49.5326L177.937+49.5326L177.721+51.586C177.557+51.6017+177.453+51.6122+177.331+51.6266C177.296+51.6411+177.266+51.6608+177.237+51.6633C177.118+51.6805+177.051+51.7172+176.965+51.7356C176.927+51.7356+176.921+51.7513+176.862+51.7617C176.756+51.7841+176.669+51.8234+176.552+51.8589C176.541+51.8589+176.539+51.8589+176.528+51.8628C176.404+51.91+176.289+51.9691+176.158+52.0111L174.883+50.3986L173.667+51.1425L174.571+53.0082L174.571+53.0082C174.473+53.0817+174.396+53.1551+174.308+53.2168C174.308+53.2392+174.294+53.2562+174.276+53.2746C174.202+53.3179+174.134+53.407+174.058+53.4936C174.045+53.5054+174.045+53.5186+174.024+53.533C173.941+53.6092+173.868+53.6747+173.789+53.7731L173.777+53.7823C173.714+53.8833+173.646+53.9516+173.564+54.0658L173.564+54.0658L171.678+53.2798L170.994+54.5158L172.687+55.6651L172.687+55.6651C172.599+55.9118+172.544+56.1296+172.503+56.3645C172.49+56.3867+172.479+56.3999+172.469+56.4143C172.435+56.5114+172.42+56.6295+172.392+56.7318C172.392+56.7463+172.392+56.7606+172.392+56.7712C172.373+56.9129+172.359+56.9929+172.347+57.1215L172.347+57.1215L172.347+57.1215L170.289+57.3616L170.337+58.772L172.381+58.923L172.381+58.923C172.392+59.0554+172.42+59.1026+172.46+59.2588C172.46+59.2733+172.469+59.289+172.469+59.2994C172.503+59.369+172.53+59.5081+172.544+59.5842C172.554+59.6012+172.554+59.6091+172.565+59.6812C172.595+59.7771+172.627+59.8676+172.674+59.9765C172.674+59.9909+172.674+59.9961+172.674+60.0079C172.714+60.13+172.746+60.2232+172.798+60.3321L172.798+60.3321L171.163+61.572L171.893+62.7974L173.758+61.9052L173.758+61.9052C173.898+62.0968+174.058+62.2569+174.243+62.4261C174.257+62.4419+174.257+62.4458+174.257+62.451C174.335+62.531+174.422+62.6006+174.495+62.657C174.504+62.6793+174.524+62.6924+174.553+62.6977C174.632+62.7711+174.686+62.8407+174.793+62.9155L174.793+62.9155L173.997+64.8218L175.241+65.5067L176.446+63.8142C176.894+63.9834+177.331+64.1029+177.789+64.1645L178.084+66.227L179.482+66.1759L179.685+64.1527C179.808+64.1278+179.937+64.1029+180.028+64.0832C180.041+64.0832+180.058+64.0832+180.058+64.0727C180.168+64.0399+180.287+64.0333+180.395+63.9834C180.395+63.9834+180.399+63.9834+180.411+63.9809C180.499+63.9507+180.617+63.9192+180.718+63.8995C180.718+63.8995+180.731+63.8995+180.737+63.8916C180.85+63.8378+180.956+63.8038+181.04+63.7709L182.306+65.3926L183.51+64.6579L182.689+62.8079C182.961+62.5586+183.221+62.3381+183.455+62.0574L183.455+62.0535C183.534+61.9735+183.599+61.8803+183.68+61.7924L185.583+62.5586L186.256+61.3305L184.605+60.1339L184.605+60.1339" fill-rule="evenodd" fill="#6ac32f" opacity="1"/>
<path d="M180.989+43.9603C182.369+44.1847+184.077+44.7357+185.216+45.3839L188.919+39.3918C186.995+38.2883+184.322+37.3909+181.985+37.0065C179.584+36.609+176.804+36.6706+174.632+37.135L176.289+43.9603C177.501+43.7098+179.571+43.7241+180.989+43.9603" fill-rule="evenodd" fill="#5a2a94" opacity="1"/>
<path d="M192.146+53.7403L199.015+52.1462C197.891+47.764+194.906+43.5103+190.75+40.5491L187.072+46.5188C189.657+48.4121+191.623+51.6751+192.146+53.7403" fill-rule="evenodd" fill="#5a2a94" opacity="1"/>
<path d="M157.911+61.8461C156.648+56.2673+158.583+50.2792+160.032+47.9109L166.02+51.5885C164.129+55.5418+164.51+58.6251+164.747+60.2494L157.911+61.8461" fill-rule="evenodd" fill="#5a2a94" opacity="1"/>
<path d="M166.669+75.2684C162.887+72.8451+159.64+68.2595+158.409+63.9809L165.267+62.3487C166.087+64.8639+168.014+67.6664+170.383+69.2933L166.669+75.2684" fill-rule="evenodd" fill="#5a2a94" opacity="1"/>
<path d="M182.477+78.667C177.023+79.7873+171.371+78.1028+168.529+76.4258L172.234+70.4519C175.433+71.9344+177.736+72.2218+180.824+71.823L182.477+78.667" fill-rule="evenodd" fill="#5a2a94" opacity="1"/>
<path d="M184.605+78.1443C189.101+76.8507+193.264+73.8724+195.95+70.0005L189.971+66.2927C188.966+67.8278+186.063+70.4007+182.937+71.3139L184.605+78.1443" fill-rule="evenodd" fill="#5a2a94" opacity="1"/>
<path d="M199.491+54.2638L192.632+55.8907C192.919+58.1068+192.919+60.9146+191.124+64.4663L197.126+68.14C198.29+66.1077+200.63+60.9146+199.491+54.2638" fill-rule="evenodd" fill="#5a2a94" opacity="1"/>
<path d="M174.179+44.5062L172.507+37.6533C167.763+39.1294+163.896+42.0369+161.161+46.0124L167.148+49.6979C168.84+47.4071+171.085+45.5479+174.179+44.5062" fill-rule="evenodd" fill="#5a2a94" opacity="1"/>
<path d="M178.595+58.0819L178.62+58.0767L178.633+58.0622L178.579+58.0189L178.595+58.0819" fill-rule="evenodd" fill="#5a2a94" opacity="1"/>
<path d="M178.65+58.0701L178.633+58.0622L178.62+58.0767L178.65+58.0701Z" fill-rule="evenodd" fill="#5a2a94" opacity="1"/>
<path d="M178.602+58.12L178.62+58.0885L178.595+58.095L178.602+58.12Z" fill-rule="evenodd" fill="#5a2a94" opacity="1"/>
</g>
</g>
</svg>
