<?xml version="1.0" encoding="UTF-8" standalone="no"?> <!-- Created with Vectornator for iOS (http://vectornator.io/) --><!DOCTYPE svg PUBLIC "-//W3C//DTD SVG 1.1//EN" "http://www.w3.org/Graphics/SVG/1.1/DTD/svg11.dtd">
<svg style="fill-rule:evenodd;clip-rule:evenodd;stroke-linecap:round;stroke-linejoin:round;" xmlns:vectornator="http://vectornator.io" xmlns:xlink="http://www.w3.org/1999/xlink" xmlns="http://www.w3.org/2000/svg" xml:space="preserve" version="1.1" viewBox="0 0 512 175">
<metadata>
<vectornator:setting key="DynamicGuides" value="1"/>
<vectornator:setting key="CMYKEnabledKey" value="0"/>
<vectornator:setting key="Units" value="Points"/>
<vectornator:setting key="RulersVisible" value="1"/>
<vectornator:setting key="SnapToGuides" value="1"/>
<vectornator:setting key="GridSpacing" value="36"/>
</metadata>
<defs/>
<g id="g10" vectornator:layerName="g10">
<g opacity="1">
<path d="M456.056+46.7669C448.828+46.7669+442.139+48.5827+436.01+52.2092C429.875+55.8304+425.025+60.9383+421.399+67.5116C417.775+74.0745+415.98+81.0271+415.98+88.3456C415.98+95.6091+417.783+102.563+421.458+109.192C425.092+115.811+429.999+120.978+436.144+124.682C442.311+128.369+448.9+130.21+455.968+130.21C463.095+130.21+469.827+128.376+476.214+124.721C482.592+121.066+487.503+116.091+490.901+109.847C494.367+103.605+496.081+96.5485+496.081+88.7274C496.081+76.7891+492.208+66.8189+484.525+58.7865C476.817+50.7791+467.33+46.7669+456.056+46.7669ZM508.066+36.6129L508.066+139.804L495.235+139.804L495.235+122.069C489.787+128.819+483.682+133.919+476.884+137.325C470.117+140.751+462.69+142.439+454.626+142.439C440.324+142.439+428.095+137.159+417.967+126.566C407.848+115.97+402.774+103.088+402.774+87.9166C402.774+73.0668+407.864+60.3479+418.108+49.7963C428.334+39.2436+440.637+33.9665+454.998+33.9665C463.297+33.9665+470.815+35.7588+477.54+39.3591C484.265+42.9619+490.184+48.3741+495.235+55.593L495.235+36.6129L508.066+36.6129" fill-rule="evenodd" fill="#5a2a94" opacity="1"/>
<path stroke="#5a2a94" stroke-width="1.89251" d="M456.056+46.7669C448.828+46.7669+442.139+48.5827+436.01+52.2092C429.875+55.8304+425.025+60.9383+421.399+67.5116C417.775+74.0745+415.98+81.0271+415.98+88.3456C415.98+95.6091+417.783+102.563+421.458+109.192C425.092+115.811+429.999+120.978+436.144+124.682C442.311+128.369+448.9+130.21+455.968+130.21C463.095+130.21+469.827+128.376+476.214+124.721C482.592+121.066+487.503+116.091+490.901+109.847C494.367+103.605+496.081+96.5485+496.081+88.7274C496.081+76.7891+492.208+66.8189+484.525+58.7865C476.817+50.7791+467.33+46.7669+456.056+46.7669ZM508.066+36.6129L508.066+139.804L495.235+139.804L495.235+122.069C489.787+128.819+483.682+133.919+476.884+137.325C470.117+140.751+462.69+142.439+454.626+142.439C440.324+142.439+428.095+137.159+417.967+126.566C407.848+115.97+402.774+103.088+402.774+87.9166C402.774+73.0668+407.864+60.3479+418.108+49.7963C428.334+39.2436+440.637+33.9665+454.998+33.9665C463.297+33.9665+470.815+35.7588+477.54+39.3591C484.265+42.9619+490.184+48.3741+495.235+55.593L495.235+36.6129L508.066+36.6129Z" fill="none" stroke-linecap="butt" opacity="1" stroke-linejoin="miter"/>
<path d="M178.37+143.463C142.359+143.463+124.465+117.418+110.622+93.174L110.622+93.174C95.2699+65.3271+82.1507+45.4351+56.2809+45.4351C33.6317+45.4351+15.1975+64.5398+15.1975+88.0005C15.1975+111.76+32.8501+130.362+55.3722+130.362C67.5063+130.362+84.6413+122.224+93.5557+104.379L95.2344+101.029L107.484+101.029L107.484+139.878L95.3387+139.878L95.3387+123.28C83.6484+136.459+67.958+142.496+55.3722+142.496C26.0326+142.496+3.0656+118.557+3.0656+88.0005C3.0656+57.8405+26.9356+33.2987+56.2809+33.2987C90.268+33.2987+105.864+58.1384+121.356+87.5164C134.049+109.707+148.939+131.32+178.37+131.32C193.761+131.32+207.82+123.738+215.997+111.039L226.21+117.608C215.783+133.799+197.893+143.463+178.37+143.463" fill-rule="evenodd" fill="#6ac32f" opacity="1"/>
<path stroke="#6ac32f" stroke-width="1.89251" d="M178.37+143.463C142.359+143.463+124.465+117.418+110.622+93.174L110.622+93.174C95.2699+65.3271+82.1507+45.4351+56.2809+45.4351C33.6317+45.4351+15.1975+64.5398+15.1975+88.0005C15.1975+111.76+32.8501+130.362+55.3722+130.362C67.5063+130.362+84.6413+122.224+93.5557+104.379L95.2344+101.029L107.484+101.029L107.484+139.878L95.3387+139.878L95.3387+123.28C83.6484+136.459+67.958+142.496+55.3722+142.496C26.0326+142.496+3.0656+118.557+3.0656+88.0005C3.0656+57.8405+26.9356+33.2987+56.2809+33.2987C90.268+33.2987+105.864+58.1384+121.356+87.5164C134.049+109.707+148.939+131.32+178.37+131.32C193.761+131.32+207.82+123.738+215.997+111.039L226.21+117.608C215.783+133.799+197.893+143.463+178.37+143.463Z" fill="none" stroke-linecap="butt" opacity="1" stroke-linejoin="miter"/>
<path d="M320.496+75.3472C318.748+68.2686+316.242+62.6138+312.919+58.3628C309.605+54.1327+305.206+50.7056+299.752+48.1195C294.286+45.5401+288.539+44.2346+282.536+44.2346C272.613+44.2346+264.072+47.4951+256.932+54.0067C251.733+58.7511+247.784+65.8624+245.129+75.3472L320.496+75.3472ZM320.496+103.135L331.472+109.012C327.88+116.215+323.705+122.039+318.997+126.465C314.286+130.882+309.002+134.247+303.084+136.561C297.187+138.86+290.532+140.013+283.095+140.013C266.608+140.013+253.699+134.508+244.399+123.486C235.083+112.431+230.434+99.9703+230.434+86.0614C230.434+72.9684+234.374+61.2977+242.254+51.0559C252.241+38.0431+265.61+31.5366+282.335+31.5366C299.581+31.5366+313.362+38.2123+323.629+51.5466C330.966+60.9488+334.68+72.727+334.824+86.8132L243.824+86.8132C244.066+98.8105+247.82+108.636+255.078+116.295C262.34+123.966+271.303+127.778+281.969+127.778C287.115+127.778+292.128+126.872+297.002+125.041C301.85+123.219+306.004+120.803+309.439+117.772C312.844+114.748+316.53+109.871+320.496+103.135" fill-rule="evenodd" fill="#5a2a94" opacity="1"/>
<path stroke="#5a2a94" stroke-width="1.89251" d="M320.496+75.3472C318.748+68.2686+316.242+62.6138+312.919+58.3628C309.605+54.1327+305.206+50.7056+299.752+48.1195C294.286+45.5401+288.539+44.2346+282.536+44.2346C272.613+44.2346+264.072+47.4951+256.932+54.0067C251.733+58.7511+247.784+65.8624+245.129+75.3472L320.496+75.3472ZM320.496+103.135L331.472+109.012C327.88+116.215+323.705+122.039+318.997+126.465C314.286+130.882+309.002+134.247+303.084+136.561C297.187+138.86+290.532+140.013+283.095+140.013C266.608+140.013+253.699+134.508+244.399+123.486C235.083+112.431+230.434+99.9703+230.434+86.0614C230.434+72.9684+234.374+61.2977+242.254+51.0559C252.241+38.0431+265.61+31.5366+282.335+31.5366C299.581+31.5366+313.362+38.2123+323.629+51.5466C330.966+60.9488+334.68+72.727+334.824+86.8132L243.824+86.8132C244.066+98.8105+247.82+108.636+255.078+116.295C262.34+123.966+271.303+127.778+281.969+127.778C287.115+127.778+292.128+126.872+297.002+125.041C301.85+123.219+306.004+120.803+309.439+117.772C312.844+114.748+316.53+109.871+320.496+103.135Z" fill="none" stroke-linecap="butt" opacity="1" stroke-linejoin="miter"/>
<path d="M354.138+34.1962L367.428+34.1962L367.428+49.2703C371.382+43.3293+375.595+38.8789+379.983+35.9412C384.371+33.0074+388.949+31.5366+393.729+31.5366C397.326+31.5366+401.164+32.6991+405.247+35.0398L398.468+46.2355C395.748+45.0311+393.444+44.4301+391.573+44.4301C387.247+44.4301+383.078+46.2565+379.05+49.8764C375.028+53.5187+371.955+59.1604+369.828+66.8058C368.243+72.6877+367.428+84.5839+367.428+102.459L367.428+137.357L354.138+137.357L354.138+34.1961" fill-rule="evenodd" fill="#5a2a94" opacity="1"/>
<path stroke="#5a2a94" stroke-width="1.89251" d="M354.138+34.1962L367.428+34.1962L367.428+49.2703C371.382+43.3293+375.595+38.8789+379.983+35.9412C384.371+33.0074+388.949+31.5366+393.729+31.5366C397.326+31.5366+401.164+32.6991+405.247+35.0398L398.468+46.2355C395.748+45.0311+393.444+44.4301+391.573+44.4301C387.247+44.4301+383.078+46.2565+379.05+49.8764C375.028+53.5187+371.955+59.1604+369.828+66.8058C368.243+72.6877+367.428+84.5839+367.428+102.459L367.428+137.357L354.138+137.357L354.138+34.1962Z" fill="none" stroke-linecap="butt" opacity="1" stroke-linejoin="miter"/>
<path d="M132.719+88.6526C135.612+59.3008+158.218+44.421+178.37+44.421C193.021+44.421+206.72+51.4588+214.999+63.233L224.93+56.2621C214.377+41.2406+196.97+32.2937+178.37+32.2937C156.568+32.2937+132.637+45.0205+123.787+72.5197L132.719+88.6526" fill-rule="evenodd" fill="#5a2a94" opacity="1"/>
<path stroke="#5a2a94" stroke-width="1.89373" d="M132.719+88.6526C135.612+59.3008+158.218+44.421+178.37+44.421C193.021+44.421+206.72+51.4588+214.999+63.233L224.93+56.2621C214.377+41.2406+196.97+32.2937+178.37+32.2937C156.568+32.2937+132.637+45.0205+123.787+72.5197L132.719+88.6526Z" fill="none" stroke-linecap="butt" opacity="1" stroke-linejoin="miter"/>
<path d="M178.598+91.4106C176.627+91.4106+175+89.7889+175+87.7788C175+85.8016+176.627+84.1878+178.598+84.1878C180.597+84.1878+182.215+85.8016+182.215+87.7788C182.215+89.7889+180.597+91.4106+178.598+91.4106ZM184.605+90.1339C184.78+89.7115+184.906+89.2588+184.964+88.7694L186.995+88.5136L186.97+87.0952L184.944+86.8669C184.943+86.7463+184.916+86.6361+184.868+86.535C184.862+86.5114+184.862+86.4878+184.862+86.4799C184.845+86.3867+184.826+86.2765+184.814+86.1741C184.814+86.165+184.814+86.1571+184.801+86.1348C184.78+86.0299+184.721+85.9354+184.699+85.837C184.699+85.8226+184.699+85.8226+184.699+85.8173C184.667+85.7189+184.605+85.6113+184.586+85.505L184.586+85.505L186.183+84.2822L185.492+83.0424L183.599+83.8676C183.311+83.4936+182.975+83.1748+182.601+82.8823C182.601+82.8823+182.601+82.8823+182.599+82.8823L183.398+80.9877L182.196+80.2844L180.956+81.9179C180.516+81.7617+180.068+81.6266+179.623+81.561L179.623+81.561L179.343+79.5326L177.937+79.5326L177.721+81.586C177.557+81.6017+177.453+81.6122+177.331+81.6266C177.296+81.6411+177.266+81.6608+177.237+81.6633C177.118+81.6805+177.051+81.7172+176.965+81.7356C176.927+81.7356+176.921+81.7513+176.862+81.7617C176.756+81.7841+176.669+81.8234+176.552+81.8589C176.541+81.8589+176.539+81.8589+176.528+81.8628C176.404+81.91+176.289+81.9691+176.158+82.0111L174.883+80.3986L173.667+81.1425L174.571+83.0082L174.571+83.0082C174.473+83.0817+174.396+83.1551+174.308+83.2168C174.308+83.2392+174.294+83.2562+174.276+83.2746C174.202+83.3179+174.134+83.407+174.058+83.4936C174.045+83.5054+174.045+83.5186+174.024+83.533C173.941+83.6092+173.868+83.6747+173.789+83.7731L173.777+83.7823C173.714+83.8833+173.646+83.9516+173.564+84.0658L173.564+84.0658L171.678+83.2798L170.994+84.5158L172.687+85.6651L172.687+85.6651C172.599+85.9118+172.544+86.1296+172.503+86.3645C172.49+86.3867+172.479+86.3999+172.469+86.4143C172.435+86.5114+172.42+86.6295+172.392+86.7318C172.392+86.7463+172.392+86.7606+172.392+86.7712C172.373+86.9129+172.359+86.9929+172.347+87.1215L172.347+87.1215L172.347+87.1215L170.289+87.3616L170.337+88.772L172.381+88.923L172.381+88.923C172.392+89.0554+172.42+89.1026+172.46+89.2588C172.46+89.2733+172.469+89.289+172.469+89.2994C172.503+89.369+172.53+89.5081+172.544+89.5842C172.554+89.6012+172.554+89.6091+172.565+89.6812C172.595+89.7771+172.627+89.8676+172.674+89.9765C172.674+89.9909+172.674+89.9961+172.674+90.0079C172.714+90.13+172.746+90.2232+172.798+90.3321L172.798+90.3321L171.163+91.572L171.893+92.7974L173.758+91.9052L173.758+91.9052C173.898+92.0968+174.058+92.2569+174.243+92.4261C174.257+92.4419+174.257+92.4458+174.257+92.451C174.335+92.531+174.422+92.6006+174.495+92.657C174.504+92.6793+174.524+92.6924+174.553+92.6977C174.632+92.7711+174.686+92.8407+174.793+92.9155L174.793+92.9155L173.997+94.8218L175.241+95.5067L176.446+93.8142C176.894+93.9834+177.331+94.1029+177.789+94.1645L178.084+96.227L179.482+96.1759L179.685+94.1527C179.808+94.1278+179.937+94.1029+180.028+94.0832C180.041+94.0832+180.058+94.0832+180.058+94.0727C180.168+94.0399+180.287+94.0333+180.395+93.9834C180.395+93.9834+180.399+93.9834+180.411+93.9809C180.499+93.9507+180.617+93.9192+180.718+93.8995C180.718+93.8995+180.731+93.8995+180.737+93.8916C180.85+93.8378+180.956+93.8038+181.04+93.7709L182.306+95.3926L183.51+94.6579L182.689+92.8079C182.961+92.5586+183.221+92.3381+183.455+92.0574L183.455+92.0535C183.534+91.9735+183.599+91.8803+183.68+91.7924L185.583+92.5586L186.256+91.3305L184.605+90.1339L184.605+90.1339" fill-rule="evenodd" fill="#6ac32f" opacity="1"/>
<path d="M180.989+73.9603C182.369+74.1847+184.077+74.7357+185.216+75.3839L188.919+69.3918C186.995+68.2883+184.322+67.3909+181.985+67.0065C179.584+66.609+176.804+66.6706+174.632+67.135L176.289+73.9603C177.501+73.7098+179.571+73.7241+180.989+73.9603" fill-rule="evenodd" fill="#5a2a94" opacity="1"/>
<path d="M192.146+83.7403L199.015+82.1462C197.891+77.764+194.906+73.5103+190.75+70.5491L187.072+76.5188C189.657+78.4121+191.623+81.6751+192.146+83.7403" fill-rule="evenodd" fill="#5a2a94" opacity="1"/>
<path d="M157.911+91.8461C156.648+86.2673+158.583+80.2792+160.032+77.9109L166.02+81.5885C164.129+85.5418+164.51+88.6251+164.747+90.2494L157.911+91.8461" fill-rule="evenodd" fill="#5a2a94" opacity="1"/>
<path d="M166.669+105.268C162.887+102.845+159.64+98.2595+158.409+93.9809L165.267+92.3487C166.087+94.8639+168.014+97.6664+170.383+99.2933L166.669+105.268" fill-rule="evenodd" fill="#5a2a94" opacity="1"/>
<path d="M182.477+108.667C177.023+109.787+171.371+108.103+168.529+106.426L172.234+100.452C175.433+101.934+177.736+102.222+180.824+101.823L182.477+108.667" fill-rule="evenodd" fill="#5a2a94" opacity="1"/>
<path d="M184.605+108.144C189.101+106.851+193.264+103.872+195.95+100.001L189.971+96.2927C188.966+97.8278+186.063+100.401+182.937+101.314L184.605+108.144" fill-rule="evenodd" fill="#5a2a94" opacity="1"/>
<path d="M199.491+84.2638L192.632+85.8907C192.919+88.1068+192.919+90.9146+191.124+94.4663L197.126+98.14C198.29+96.1077+200.63+90.9146+199.491+84.2638" fill-rule="evenodd" fill="#5a2a94" opacity="1"/>
<path d="M174.179+74.5062L172.507+67.6533C167.763+69.1294+163.896+72.0369+161.161+76.0124L167.148+79.6979C168.84+77.4071+171.085+75.5479+174.179+74.5062" fill-rule="evenodd" fill="#5a2a94" opacity="1"/>
<path d="M178.595+88.0819L178.62+88.0767L178.633+88.0622L178.579+88.0189L178.595+88.0819" fill-rule="evenodd" fill="#5a2a94" opacity="1"/>
<path d="M178.65+88.0701L178.633+88.0622L178.62+88.0767L178.65+88.0701Z" fill-rule="evenodd" fill="#5a2a94" opacity="1"/>
<path d="M178.602+88.12L178.62+88.0885L178.595+88.095L178.602+88.12Z" fill-rule="evenodd" fill="#5a2a94" opacity="1"/>
</g>
</g>
</svg>
